<svg xmlns="http://www.w3.org/2000/svg" xmlns:xlink="http://www.w3.org/1999/xlink" width="2000" zoomAndPan="magnify" viewBox="0 0 1500 374.999991" height="500" preserveAspectRatio="xMidYMid meet" version="1.0"><defs><g/></defs><g fill="#ffffff" fill-opacity="1"><g transform="translate(73.78854, 300.490432)"><g><path d="M -4.34375 0 L 0.3125 -28.578125 C 3.832031 -50.722656 10.921875 -68.160156 21.578125 -80.890625 C 32.242188 -93.628906 48.238281 -103.414062 69.5625 -110.25 L 100.921875 -120.5 C 113.765625 -124.632812 122.925781 -129.859375 128.40625 -136.171875 C 133.894531 -142.484375 136.640625 -150.40625 136.640625 -159.9375 C 136.640625 -164.695312 135.289062 -168.578125 132.59375 -171.578125 C 129.90625 -174.578125 125.972656 -176.078125 120.796875 -176.078125 C 114.171875 -176.078125 108.0625 -172.867188 102.46875 -166.453125 C 96.882812 -160.035156 92.539062 -150.613281 89.4375 -138.1875 L 25.15625 -150.609375 C 29.707031 -167.171875 36.898438 -181.144531 46.734375 -192.53125 C 56.566406 -203.925781 68.367188 -212.625 82.140625 -218.625 C 95.910156 -224.625 110.867188 -227.625 127.015625 -227.625 C 142.128906 -227.625 155.429688 -225.035156 166.921875 -219.859375 C 178.410156 -214.691406 187.414062 -207.394531 193.9375 -197.96875 C 200.457031 -188.550781 203.71875 -177.425781 203.71875 -164.59375 C 203.71875 -144.925781 197.972656 -128.617188 186.484375 -115.671875 C 174.992188 -102.734375 157.035156 -92.332031 132.609375 -84.46875 L 100.625 -74.53125 C 91.09375 -71.425781 84 -67.695312 79.34375 -63.34375 C 74.6875 -59 71.84375 -53.304688 70.8125 -46.265625 L 182.609375 -46.265625 L 175.15625 0 Z M -4.34375 0 "/></g></g></g><g fill="#ffffff" fill-opacity="1"><g transform="translate(273.465593, 300.490432)"><g><path d="M -4.34375 0 L 0.3125 -28.578125 C 3.832031 -50.722656 10.921875 -68.160156 21.578125 -80.890625 C 32.242188 -93.628906 48.238281 -103.414062 69.5625 -110.25 L 100.921875 -120.5 C 113.765625 -124.632812 122.925781 -129.859375 128.40625 -136.171875 C 133.894531 -142.484375 136.640625 -150.40625 136.640625 -159.9375 C 136.640625 -164.695312 135.289062 -168.578125 132.59375 -171.578125 C 129.90625 -174.578125 125.972656 -176.078125 120.796875 -176.078125 C 114.171875 -176.078125 108.0625 -172.867188 102.46875 -166.453125 C 96.882812 -160.035156 92.539062 -150.613281 89.4375 -138.1875 L 25.15625 -150.609375 C 29.707031 -167.171875 36.898438 -181.144531 46.734375 -192.53125 C 56.566406 -203.925781 68.367188 -212.625 82.140625 -218.625 C 95.910156 -224.625 110.867188 -227.625 127.015625 -227.625 C 142.128906 -227.625 155.429688 -225.035156 166.921875 -219.859375 C 178.410156 -214.691406 187.414062 -207.394531 193.9375 -197.96875 C 200.457031 -188.550781 203.71875 -177.425781 203.71875 -164.59375 C 203.71875 -144.925781 197.972656 -128.617188 186.484375 -115.671875 C 174.992188 -102.734375 157.035156 -92.332031 132.609375 -84.46875 L 100.625 -74.53125 C 91.09375 -71.425781 84 -67.695312 79.34375 -63.34375 C 74.6875 -59 71.84375 -53.304688 70.8125 -46.265625 L 182.609375 -46.265625 L 175.15625 0 Z M -4.34375 0 "/></g></g></g><g fill="#ffffff" fill-opacity="1"><g transform="translate(473.142645, 300.490432)"><g><path d="M 1.25 0 L 36.640625 -222.359375 L 124.84375 -222.359375 L 154.03125 -75.78125 L 154.65625 -75.78125 L 231.671875 -222.359375 L 319.25 -222.359375 L 283.84375 0 L 223.28125 0 L 246.578125 -145.640625 L 245.953125 -145.953125 L 168.625 0 L 116.453125 0 L 85.40625 -145.640625 L 84.78125 -145.640625 L 62.109375 0 Z M 1.25 0 "/></g></g></g><g fill="#ffffff" fill-opacity="1"><g transform="translate(783.682403, 300.490432)"><g><path d="M 87.578125 5.59375 C 70.597656 5.59375 55.84375 2.644531 43.3125 -3.25 C 30.789062 -9.15625 21.113281 -17.382812 14.28125 -27.9375 C 7.445312 -38.5 4.03125 -50.925781 4.03125 -65.21875 C 4.03125 -79.5 6.566406 -92.742188 11.640625 -104.953125 C 16.710938 -117.171875 23.851562 -127.832031 33.0625 -136.9375 C 42.28125 -146.050781 53.046875 -153.144531 65.359375 -158.21875 C 77.679688 -163.289062 91.09375 -165.828125 105.59375 -165.828125 C 128.15625 -165.828125 145.90625 -159.976562 158.84375 -148.28125 C 171.78125 -136.582031 178.25 -120.796875 178.25 -100.921875 C 178.25 -95.128906 177.523438 -88.609375 176.078125 -81.359375 C 174.628906 -74.117188 172.867188 -68.21875 170.796875 -63.65625 L 63.359375 -63.65625 C 62.941406 -55.175781 65.628906 -48.453125 71.421875 -43.484375 C 77.222656 -38.515625 84.988281 -36.03125 94.71875 -36.03125 C 102.789062 -36.03125 110.65625 -37.734375 118.3125 -41.140625 C 125.976562 -44.554688 132.085938 -49.164062 136.640625 -54.96875 L 171.734375 -34.15625 C 166.554688 -26.082031 159.515625 -19.09375 150.609375 -13.1875 C 141.710938 -7.289062 131.878906 -2.6875 121.109375 0.625 C 110.347656 3.9375 99.171875 5.59375 87.578125 5.59375 Z M 68.015625 -94.09375 L 119.25 -94.40625 C 120.28125 -103.519531 119.085938 -110.921875 115.671875 -116.609375 C 112.265625 -122.304688 106.832031 -125.15625 99.375 -125.15625 C 91.925781 -125.15625 85.40625 -122.359375 79.8125 -116.765625 C 74.21875 -111.171875 70.285156 -103.613281 68.015625 -94.09375 Z M 68.015625 -94.09375 "/></g></g></g><g fill="#ffffff" fill-opacity="1"><g transform="translate(967.832461, 300.490432)"><g><path d="M 56.203125 3.734375 C 39.847656 3.734375 26.960938 -1.648438 17.546875 -12.421875 C 8.128906 -23.191406 3.421875 -38.203125 3.421875 -57.453125 C 3.421875 -70.492188 5.226562 -83.328125 8.84375 -95.953125 C 12.46875 -108.585938 17.695312 -120.023438 24.53125 -130.265625 C 31.363281 -140.515625 39.59375 -148.691406 49.21875 -154.796875 C 58.84375 -160.910156 69.765625 -163.96875 81.984375 -163.96875 C 93.578125 -163.96875 103.253906 -161.066406 111.015625 -155.265625 C 118.785156 -149.472656 124.015625 -141.09375 126.703125 -130.125 L 127.015625 -130.125 L 143.46875 -231.671875 L 203.40625 -231.671875 L 166.765625 0 L 115.828125 0 L 112.734375 -30.4375 L 112.421875 -30.4375 C 106.210938 -19.050781 98.1875 -10.507812 88.34375 -4.8125 C 78.507812 0.882812 67.796875 3.734375 56.203125 3.734375 Z M 88.203125 -46.578125 C 94.828125 -46.578125 100.722656 -48.644531 105.890625 -52.78125 C 111.066406 -56.925781 115.15625 -62.3125 118.15625 -68.9375 C 121.164062 -75.5625 122.671875 -82.394531 122.671875 -89.4375 C 122.671875 -96.894531 120.597656 -102.847656 116.453125 -107.296875 C 112.316406 -111.742188 106.519531 -113.96875 99.0625 -113.96875 C 92.644531 -113.96875 86.847656 -111.894531 81.671875 -107.75 C 76.492188 -103.613281 72.40625 -98.285156 69.40625 -91.765625 C 66.40625 -85.242188 64.90625 -78.359375 64.90625 -71.109375 C 64.90625 -63.660156 66.921875 -57.707031 70.953125 -53.25 C 74.992188 -48.800781 80.742188 -46.578125 88.203125 -46.578125 Z M 88.203125 -46.578125 "/></g></g></g><g fill="#ffffff" fill-opacity="1"><g transform="translate(1156.640651, 300.490432)"><g><path d="M 55.90625 -177.015625 C 47 -177.015625 39.90625 -179.445312 34.625 -184.3125 C 29.34375 -189.175781 26.703125 -195.644531 26.703125 -203.71875 C 26.703125 -215.3125 30.425781 -224.628906 37.875 -231.671875 C 45.332031 -238.710938 54.65625 -242.234375 65.84375 -242.234375 C 74.945312 -242.234375 82.085938 -239.796875 87.265625 -234.921875 C 92.441406 -230.054688 95.03125 -223.484375 95.03125 -215.203125 C 95.03125 -204.441406 91.300781 -195.382812 83.84375 -188.03125 C 76.394531 -180.6875 67.082031 -177.015625 55.90625 -177.015625 Z M -2.484375 0 L 22.984375 -160.25 L 82.921875 -160.25 L 57.765625 0 Z M -2.484375 0 "/></g></g></g><g fill="#ffffff" fill-opacity="1"><g transform="translate(1237.380956, 300.490432)"><g><path d="M 56.203125 3.734375 C 39.640625 3.734375 26.703125 -1.695312 17.390625 -12.5625 C 8.078125 -23.4375 3.421875 -38.398438 3.421875 -57.453125 C 3.421875 -70.703125 5.226562 -83.640625 8.84375 -96.265625 C 12.46875 -108.898438 17.695312 -120.335938 24.53125 -130.578125 C 31.363281 -140.828125 39.644531 -148.953125 49.375 -154.953125 C 59.101562 -160.960938 70.078125 -163.96875 82.296875 -163.96875 C 93.679688 -163.96875 103.253906 -161.066406 111.015625 -155.265625 C 118.785156 -149.472656 124.015625 -140.78125 126.703125 -129.1875 L 127.015625 -129.1875 L 140.0625 -160.25 L 191.921875 -160.25 L 166.765625 0 L 114.90625 0 L 111.796875 -30.4375 L 111.484375 -30.4375 C 105.273438 -19.257812 97.40625 -10.769531 87.875 -4.96875 C 78.351562 0.832031 67.796875 3.734375 56.203125 3.734375 Z M 88.203125 -46.578125 C 94.828125 -46.578125 100.722656 -48.644531 105.890625 -52.78125 C 111.066406 -56.925781 115.15625 -62.3125 118.15625 -68.9375 C 121.164062 -75.5625 122.671875 -82.394531 122.671875 -89.4375 C 122.671875 -96.894531 120.597656 -102.847656 116.453125 -107.296875 C 112.316406 -111.742188 106.625 -113.96875 99.375 -113.96875 C 92.75 -113.96875 86.847656 -111.894531 81.671875 -107.75 C 76.492188 -103.613281 72.40625 -98.285156 69.40625 -91.765625 C 66.40625 -85.242188 64.90625 -78.359375 64.90625 -71.109375 C 64.90625 -63.453125 66.921875 -57.445312 70.953125 -53.09375 C 74.992188 -48.75 80.742188 -46.578125 88.203125 -46.578125 Z M 88.203125 -46.578125 "/></g></g></g></svg>